<mxfile host="Electron" modified="2024-04-14T12:28:11.669Z" agent="Mozilla/5.0 (Macintosh; Intel Mac OS X 10_15_7) AppleWebKit/537.36 (KHTML, like Gecko) draw.io/21.6.1 Chrome/112.0.5615.204 Electron/24.6.1 Safari/537.36" etag="wKJ4-P-O3Vdrr8R9QZJw" version="21.6.1" type="device">
  <diagram id="C5RBs43oDa-KdzZeNtuy" name="Page-1">
    <mxGraphModel dx="1209" dy="672" grid="1" gridSize="10" guides="1" tooltips="1" connect="1" arrows="1" fold="1" page="1" pageScale="1" pageWidth="827" pageHeight="1169" math="0" shadow="0">
      <root>
        <mxCell id="WIyWlLk6GJQsqaUBKTNV-0" />
        <mxCell id="WIyWlLk6GJQsqaUBKTNV-1" parent="WIyWlLk6GJQsqaUBKTNV-0" />
        <mxCell id="0h9OZLmdpsiHwK4iKD2x-0" value="&amp;nbsp; WorDfuUtil" style="shape=folder;fontStyle=1;spacingTop=10;tabWidth=80;tabHeight=40;tabPosition=left;shadow=0;noLabel=0;gradientColor=none;align=left;horizontal=1;verticalAlign=top;labelBorderColor=none;labelBackgroundColor=none;whiteSpace=wrap;html=1;labelPosition=center;verticalLabelPosition=middle;movable=1;resizable=1;rotatable=1;deletable=1;editable=1;locked=0;connectable=1;" parent="WIyWlLk6GJQsqaUBKTNV-1" vertex="1">
          <mxGeometry x="90" y="130" width="720" height="320" as="geometry" />
        </mxCell>
        <mxCell id="DsCOxAx_oQ0n1vZlxWs8-0" value="&amp;lt;&amp;lt;global&amp;gt;&amp;gt;&lt;br&gt;DfuUtilVariables.hpp" style="swimlane;fontStyle=0;childLayout=stackLayout;horizontal=1;startSize=50;fillColor=none;horizontalStack=0;resizeParent=1;resizeParentMax=0;resizeLast=0;collapsible=1;marginBottom=0;whiteSpace=wrap;html=1;" vertex="1" parent="WIyWlLk6GJQsqaUBKTNV-1">
          <mxGeometry x="-190" y="150" width="220" height="414" as="geometry" />
        </mxCell>
        <mxCell id="DsCOxAx_oQ0n1vZlxWs8-2" value="verbose : int" style="text;strokeColor=none;fillColor=none;align=left;verticalAlign=top;spacingLeft=4;spacingRight=4;overflow=hidden;rotatable=0;points=[[0,0.5],[1,0.5]];portConstraint=eastwest;whiteSpace=wrap;html=1;" vertex="1" parent="DsCOxAx_oQ0n1vZlxWs8-0">
          <mxGeometry y="50" width="220" height="26" as="geometry" />
        </mxCell>
        <mxCell id="DsCOxAx_oQ0n1vZlxWs8-3" value="dfu_root : dfu_if*" style="text;strokeColor=none;fillColor=none;align=left;verticalAlign=top;spacingLeft=4;spacingRight=4;overflow=hidden;rotatable=0;points=[[0,0.5],[1,0.5]];portConstraint=eastwest;whiteSpace=wrap;html=1;" vertex="1" parent="DsCOxAx_oQ0n1vZlxWs8-0">
          <mxGeometry y="76" width="220" height="26" as="geometry" />
        </mxCell>
        <mxCell id="DsCOxAx_oQ0n1vZlxWs8-4" value="match_path : char*" style="text;strokeColor=none;fillColor=none;align=left;verticalAlign=top;spacingLeft=4;spacingRight=4;overflow=hidden;rotatable=0;points=[[0,0.5],[1,0.5]];portConstraint=eastwest;whiteSpace=wrap;html=1;" vertex="1" parent="DsCOxAx_oQ0n1vZlxWs8-0">
          <mxGeometry y="102" width="220" height="26" as="geometry" />
        </mxCell>
        <mxCell id="DsCOxAx_oQ0n1vZlxWs8-5" value="match_vendor : int" style="text;strokeColor=none;fillColor=none;align=left;verticalAlign=top;spacingLeft=4;spacingRight=4;overflow=hidden;rotatable=0;points=[[0,0.5],[1,0.5]];portConstraint=eastwest;whiteSpace=wrap;html=1;" vertex="1" parent="DsCOxAx_oQ0n1vZlxWs8-0">
          <mxGeometry y="128" width="220" height="26" as="geometry" />
        </mxCell>
        <mxCell id="DsCOxAx_oQ0n1vZlxWs8-6" value="match_product : int" style="text;strokeColor=none;fillColor=none;align=left;verticalAlign=top;spacingLeft=4;spacingRight=4;overflow=hidden;rotatable=0;points=[[0,0.5],[1,0.5]];portConstraint=eastwest;whiteSpace=wrap;html=1;" vertex="1" parent="DsCOxAx_oQ0n1vZlxWs8-0">
          <mxGeometry y="154" width="220" height="26" as="geometry" />
        </mxCell>
        <mxCell id="DsCOxAx_oQ0n1vZlxWs8-7" value="match_vendor_dfu : int" style="text;strokeColor=none;fillColor=none;align=left;verticalAlign=top;spacingLeft=4;spacingRight=4;overflow=hidden;rotatable=0;points=[[0,0.5],[1,0.5]];portConstraint=eastwest;whiteSpace=wrap;html=1;" vertex="1" parent="DsCOxAx_oQ0n1vZlxWs8-0">
          <mxGeometry y="180" width="220" height="26" as="geometry" />
        </mxCell>
        <mxCell id="DsCOxAx_oQ0n1vZlxWs8-8" value="match_product_dfu : int" style="text;strokeColor=none;fillColor=none;align=left;verticalAlign=top;spacingLeft=4;spacingRight=4;overflow=hidden;rotatable=0;points=[[0,0.5],[1,0.5]];portConstraint=eastwest;whiteSpace=wrap;html=1;" vertex="1" parent="DsCOxAx_oQ0n1vZlxWs8-0">
          <mxGeometry y="206" width="220" height="26" as="geometry" />
        </mxCell>
        <mxCell id="DsCOxAx_oQ0n1vZlxWs8-9" value="match_config_index : int" style="text;strokeColor=none;fillColor=none;align=left;verticalAlign=top;spacingLeft=4;spacingRight=4;overflow=hidden;rotatable=0;points=[[0,0.5],[1,0.5]];portConstraint=eastwest;whiteSpace=wrap;html=1;" vertex="1" parent="DsCOxAx_oQ0n1vZlxWs8-0">
          <mxGeometry y="232" width="220" height="26" as="geometry" />
        </mxCell>
        <mxCell id="DsCOxAx_oQ0n1vZlxWs8-10" value="match_iface_index : int" style="text;strokeColor=none;fillColor=none;align=left;verticalAlign=top;spacingLeft=4;spacingRight=4;overflow=hidden;rotatable=0;points=[[0,0.5],[1,0.5]];portConstraint=eastwest;whiteSpace=wrap;html=1;" vertex="1" parent="DsCOxAx_oQ0n1vZlxWs8-0">
          <mxGeometry y="258" width="220" height="26" as="geometry" />
        </mxCell>
        <mxCell id="DsCOxAx_oQ0n1vZlxWs8-11" value="match_iface_alt_index : int" style="text;strokeColor=none;fillColor=none;align=left;verticalAlign=top;spacingLeft=4;spacingRight=4;overflow=hidden;rotatable=0;points=[[0,0.5],[1,0.5]];portConstraint=eastwest;whiteSpace=wrap;html=1;" vertex="1" parent="DsCOxAx_oQ0n1vZlxWs8-0">
          <mxGeometry y="284" width="220" height="26" as="geometry" />
        </mxCell>
        <mxCell id="DsCOxAx_oQ0n1vZlxWs8-12" value="match_devnum : int" style="text;strokeColor=none;fillColor=none;align=left;verticalAlign=top;spacingLeft=4;spacingRight=4;overflow=hidden;rotatable=0;points=[[0,0.5],[1,0.5]];portConstraint=eastwest;whiteSpace=wrap;html=1;" vertex="1" parent="DsCOxAx_oQ0n1vZlxWs8-0">
          <mxGeometry y="310" width="220" height="26" as="geometry" />
        </mxCell>
        <mxCell id="DsCOxAx_oQ0n1vZlxWs8-13" value="match_iface_alt_name : const char*" style="text;strokeColor=none;fillColor=none;align=left;verticalAlign=top;spacingLeft=4;spacingRight=4;overflow=hidden;rotatable=0;points=[[0,0.5],[1,0.5]];portConstraint=eastwest;whiteSpace=wrap;html=1;" vertex="1" parent="DsCOxAx_oQ0n1vZlxWs8-0">
          <mxGeometry y="336" width="220" height="26" as="geometry" />
        </mxCell>
        <mxCell id="DsCOxAx_oQ0n1vZlxWs8-14" value="match_serial : const char*" style="text;strokeColor=none;fillColor=none;align=left;verticalAlign=top;spacingLeft=4;spacingRight=4;overflow=hidden;rotatable=0;points=[[0,0.5],[1,0.5]];portConstraint=eastwest;whiteSpace=wrap;html=1;" vertex="1" parent="DsCOxAx_oQ0n1vZlxWs8-0">
          <mxGeometry y="362" width="220" height="26" as="geometry" />
        </mxCell>
        <mxCell id="DsCOxAx_oQ0n1vZlxWs8-15" value="match_serial_dfu : const char*" style="text;strokeColor=none;fillColor=none;align=left;verticalAlign=top;spacingLeft=4;spacingRight=4;overflow=hidden;rotatable=0;points=[[0,0.5],[1,0.5]];portConstraint=eastwest;whiteSpace=wrap;html=1;" vertex="1" parent="DsCOxAx_oQ0n1vZlxWs8-0">
          <mxGeometry y="388" width="220" height="26" as="geometry" />
        </mxCell>
        <mxCell id="DsCOxAx_oQ0n1vZlxWs8-33" style="edgeStyle=orthogonalEdgeStyle;rounded=0;orthogonalLoop=1;jettySize=auto;html=1;dashed=1;endArrow=open;endFill=0;" edge="1" parent="WIyWlLk6GJQsqaUBKTNV-1" source="DsCOxAx_oQ0n1vZlxWs8-16" target="DsCOxAx_oQ0n1vZlxWs8-0">
          <mxGeometry relative="1" as="geometry">
            <Array as="points">
              <mxPoint x="10" y="105" />
              <mxPoint x="-100" y="105" />
            </Array>
          </mxGeometry>
        </mxCell>
        <mxCell id="DsCOxAx_oQ0n1vZlxWs8-16" value="dfu_util" style="shape=folder;fontStyle=1;spacingTop=10;tabWidth=40;tabHeight=14;tabPosition=left;html=1;whiteSpace=wrap;" vertex="1" parent="WIyWlLk6GJQsqaUBKTNV-1">
          <mxGeometry x="-10" y="10" width="90" height="50" as="geometry" />
        </mxCell>
        <mxCell id="DsCOxAx_oQ0n1vZlxWs8-17" value="&amp;lt;&amp;lt;enumeration&amp;gt;&amp;gt;&lt;br&gt;FrameworkStatus" style="swimlane;fontStyle=0;childLayout=stackLayout;horizontal=1;startSize=40;fillColor=none;horizontalStack=0;resizeParent=1;resizeParentMax=0;resizeLast=0;collapsible=1;marginBottom=0;whiteSpace=wrap;html=1;" vertex="1" parent="WIyWlLk6GJQsqaUBKTNV-1">
          <mxGeometry x="120" y="200" width="160" height="196" as="geometry" />
        </mxCell>
        <mxCell id="DsCOxAx_oQ0n1vZlxWs8-18" value="Deinited" style="text;strokeColor=none;fillColor=none;align=left;verticalAlign=top;spacingLeft=4;spacingRight=4;overflow=hidden;rotatable=0;points=[[0,0.5],[1,0.5]];portConstraint=eastwest;whiteSpace=wrap;html=1;" vertex="1" parent="DsCOxAx_oQ0n1vZlxWs8-17">
          <mxGeometry y="40" width="160" height="26" as="geometry" />
        </mxCell>
        <mxCell id="DsCOxAx_oQ0n1vZlxWs8-19" value="Inited" style="text;strokeColor=none;fillColor=none;align=left;verticalAlign=top;spacingLeft=4;spacingRight=4;overflow=hidden;rotatable=0;points=[[0,0.5],[1,0.5]];portConstraint=eastwest;whiteSpace=wrap;html=1;" vertex="1" parent="DsCOxAx_oQ0n1vZlxWs8-17">
          <mxGeometry y="66" width="160" height="26" as="geometry" />
        </mxCell>
        <mxCell id="DsCOxAx_oQ0n1vZlxWs8-20" value="DeviceOpened" style="text;strokeColor=none;fillColor=none;align=left;verticalAlign=top;spacingLeft=4;spacingRight=4;overflow=hidden;rotatable=0;points=[[0,0.5],[1,0.5]];portConstraint=eastwest;whiteSpace=wrap;html=1;" vertex="1" parent="DsCOxAx_oQ0n1vZlxWs8-17">
          <mxGeometry y="92" width="160" height="26" as="geometry" />
        </mxCell>
        <mxCell id="DsCOxAx_oQ0n1vZlxWs8-21" value="DfuDeviceFound" style="text;strokeColor=none;fillColor=none;align=left;verticalAlign=top;spacingLeft=4;spacingRight=4;overflow=hidden;rotatable=0;points=[[0,0.5],[1,0.5]];portConstraint=eastwest;whiteSpace=wrap;html=1;" vertex="1" parent="DsCOxAx_oQ0n1vZlxWs8-17">
          <mxGeometry y="118" width="160" height="26" as="geometry" />
        </mxCell>
        <mxCell id="DsCOxAx_oQ0n1vZlxWs8-22" value="InterfaceClaimed" style="text;strokeColor=none;fillColor=none;align=left;verticalAlign=top;spacingLeft=4;spacingRight=4;overflow=hidden;rotatable=0;points=[[0,0.5],[1,0.5]];portConstraint=eastwest;whiteSpace=wrap;html=1;" vertex="1" parent="DsCOxAx_oQ0n1vZlxWs8-17">
          <mxGeometry y="144" width="160" height="26" as="geometry" />
        </mxCell>
        <mxCell id="DsCOxAx_oQ0n1vZlxWs8-23" value="AltInterfaceSelected" style="text;strokeColor=none;fillColor=none;align=left;verticalAlign=top;spacingLeft=4;spacingRight=4;overflow=hidden;rotatable=0;points=[[0,0.5],[1,0.5]];portConstraint=eastwest;whiteSpace=wrap;html=1;" vertex="1" parent="DsCOxAx_oQ0n1vZlxWs8-17">
          <mxGeometry y="170" width="160" height="26" as="geometry" />
        </mxCell>
        <mxCell id="DsCOxAx_oQ0n1vZlxWs8-44" style="edgeStyle=orthogonalEdgeStyle;rounded=0;orthogonalLoop=1;jettySize=auto;html=1;dashed=1;endArrow=open;endFill=0;" edge="1" parent="WIyWlLk6GJQsqaUBKTNV-1" source="DsCOxAx_oQ0n1vZlxWs8-34" target="DsCOxAx_oQ0n1vZlxWs8-0">
          <mxGeometry relative="1" as="geometry">
            <Array as="points">
              <mxPoint x="340" y="120" />
              <mxPoint x="-40" y="120" />
            </Array>
          </mxGeometry>
        </mxCell>
        <mxCell id="DsCOxAx_oQ0n1vZlxWs8-45" style="edgeStyle=orthogonalEdgeStyle;rounded=0;orthogonalLoop=1;jettySize=auto;html=1;endArrow=open;endFill=0;" edge="1" parent="WIyWlLk6GJQsqaUBKTNV-1" source="DsCOxAx_oQ0n1vZlxWs8-34" target="DsCOxAx_oQ0n1vZlxWs8-16">
          <mxGeometry relative="1" as="geometry">
            <Array as="points">
              <mxPoint x="380" y="90" />
              <mxPoint x="60" y="90" />
            </Array>
          </mxGeometry>
        </mxCell>
        <mxCell id="DsCOxAx_oQ0n1vZlxWs8-47" style="edgeStyle=orthogonalEdgeStyle;rounded=0;orthogonalLoop=1;jettySize=auto;html=1;dashed=1;endArrow=open;endFill=0;" edge="1" parent="WIyWlLk6GJQsqaUBKTNV-1" source="DsCOxAx_oQ0n1vZlxWs8-34" target="DsCOxAx_oQ0n1vZlxWs8-46">
          <mxGeometry relative="1" as="geometry">
            <Array as="points">
              <mxPoint x="635" y="160" />
              <mxPoint x="635" y="160" />
            </Array>
          </mxGeometry>
        </mxCell>
        <mxCell id="DsCOxAx_oQ0n1vZlxWs8-34" value="Firmware" style="swimlane;fontStyle=1;align=center;verticalAlign=top;childLayout=stackLayout;horizontal=1;startSize=26;horizontalStack=0;resizeParent=1;resizeParentMax=0;resizeLast=0;collapsible=1;marginBottom=0;whiteSpace=wrap;html=1;" vertex="1" parent="WIyWlLk6GJQsqaUBKTNV-1">
          <mxGeometry x="300" y="200" width="450" height="216" as="geometry">
            <mxRectangle x="230" y="370" width="100" height="30" as="alternateBounds" />
          </mxGeometry>
        </mxCell>
        <mxCell id="DsCOxAx_oQ0n1vZlxWs8-35" value="- firmwareFile : dfu_file*" style="text;strokeColor=none;fillColor=none;align=left;verticalAlign=top;spacingLeft=4;spacingRight=4;overflow=hidden;rotatable=0;points=[[0,0.5],[1,0.5]];portConstraint=eastwest;whiteSpace=wrap;html=1;" vertex="1" parent="DsCOxAx_oQ0n1vZlxWs8-34">
          <mxGeometry y="26" width="450" height="26" as="geometry" />
        </mxCell>
        <mxCell id="DsCOxAx_oQ0n1vZlxWs8-43" value="- dfuDevice : dfu_if*" style="text;strokeColor=none;fillColor=none;align=left;verticalAlign=top;spacingLeft=4;spacingRight=4;overflow=hidden;rotatable=0;points=[[0,0.5],[1,0.5]];portConstraint=eastwest;whiteSpace=wrap;html=1;" vertex="1" parent="DsCOxAx_oQ0n1vZlxWs8-34">
          <mxGeometry y="52" width="450" height="26" as="geometry" />
        </mxCell>
        <mxCell id="DsCOxAx_oQ0n1vZlxWs8-36" value="" style="line;strokeWidth=1;fillColor=none;align=left;verticalAlign=middle;spacingTop=-1;spacingLeft=3;spacingRight=3;rotatable=0;labelPosition=right;points=[];portConstraint=eastwest;strokeColor=inherit;" vertex="1" parent="DsCOxAx_oQ0n1vZlxWs8-34">
          <mxGeometry y="78" width="450" height="8" as="geometry" />
        </mxCell>
        <mxCell id="DsCOxAx_oQ0n1vZlxWs8-37" value="+ Firmware()" style="text;strokeColor=none;fillColor=none;align=left;verticalAlign=top;spacingLeft=4;spacingRight=4;overflow=hidden;rotatable=0;points=[[0,0.5],[1,0.5]];portConstraint=eastwest;whiteSpace=wrap;html=1;" vertex="1" parent="DsCOxAx_oQ0n1vZlxWs8-34">
          <mxGeometry y="86" width="450" height="26" as="geometry" />
        </mxCell>
        <mxCell id="DsCOxAx_oQ0n1vZlxWs8-39" value="+ Upload(filePath : const std::string&amp;amp;, transferLimit int, transferSize : int) : bool" style="text;strokeColor=none;fillColor=none;align=left;verticalAlign=top;spacingLeft=4;spacingRight=4;overflow=hidden;rotatable=0;points=[[0,0.5],[1,0.5]];portConstraint=eastwest;whiteSpace=wrap;html=1;" vertex="1" parent="DsCOxAx_oQ0n1vZlxWs8-34">
          <mxGeometry y="112" width="450" height="26" as="geometry" />
        </mxCell>
        <mxCell id="DsCOxAx_oQ0n1vZlxWs8-40" value="+ Firmware()" style="text;strokeColor=none;fillColor=none;align=left;verticalAlign=top;spacingLeft=4;spacingRight=4;overflow=hidden;rotatable=0;points=[[0,0.5],[1,0.5]];portConstraint=eastwest;whiteSpace=wrap;html=1;" vertex="1" parent="DsCOxAx_oQ0n1vZlxWs8-34">
          <mxGeometry y="138" width="450" height="26" as="geometry" />
        </mxCell>
        <mxCell id="DsCOxAx_oQ0n1vZlxWs8-41" value="+ Firmware()" style="text;strokeColor=none;fillColor=none;align=left;verticalAlign=top;spacingLeft=4;spacingRight=4;overflow=hidden;rotatable=0;points=[[0,0.5],[1,0.5]];portConstraint=eastwest;whiteSpace=wrap;html=1;" vertex="1" parent="DsCOxAx_oQ0n1vZlxWs8-34">
          <mxGeometry y="164" width="450" height="26" as="geometry" />
        </mxCell>
        <mxCell id="DsCOxAx_oQ0n1vZlxWs8-42" value="+ Firmware()" style="text;strokeColor=none;fillColor=none;align=left;verticalAlign=top;spacingLeft=4;spacingRight=4;overflow=hidden;rotatable=0;points=[[0,0.5],[1,0.5]];portConstraint=eastwest;whiteSpace=wrap;html=1;" vertex="1" parent="DsCOxAx_oQ0n1vZlxWs8-34">
          <mxGeometry y="190" width="450" height="26" as="geometry" />
        </mxCell>
        <mxCell id="DsCOxAx_oQ0n1vZlxWs8-46" value="libusb" style="shape=folder;fontStyle=1;spacingTop=10;tabWidth=40;tabHeight=14;tabPosition=left;html=1;whiteSpace=wrap;" vertex="1" parent="WIyWlLk6GJQsqaUBKTNV-1">
          <mxGeometry x="590" y="10" width="90" height="50" as="geometry" />
        </mxCell>
      </root>
    </mxGraphModel>
  </diagram>
</mxfile>
